<svg width="1514" height="1514" viewBox="0 0 1514 1514" fill="none" xmlns="http://www.w3.org/2000/svg">
<rect x="27.5" y="27.5" width="1459" height="1459" rx="729.5" fill="#000020"/>
<rect x="27.5" y="27.5" width="1459" height="1459" rx="729.5" stroke="white" stroke-width="55"/>
<path d="M333 1041.96C334.519 1060.67 341.127 1079.49 358.369 1104.74C378.863 1134.72 414.055 1151.18 439.742 1124.76C457.055 1106.93 644.463 779.56 734.775 655.477C737.253 651.929 740.552 649.032 744.39 647.032C748.229 645.031 752.494 643.986 756.823 643.986C761.152 643.986 765.418 645.031 769.256 647.032C773.095 649.032 776.393 651.929 778.871 655.477C869.183 779.56 1056.59 1106.93 1073.9 1124.76C1099.59 1151.18 1134.78 1134.72 1155.28 1104.74C1175.42 1075.26 1181 1054.6 1181 1032.49C1181 1017.45 889.147 474.648 859.749 429.45C831.483 386.017 822.861 376.554 775.055 375H738.591C690.785 376.554 682.164 385.982 653.862 429.45C625.101 473.695 344.66 995.135 333 1030.87V1041.96Z" fill="white"/>
</svg>
