<?xml version="1.0" encoding="utf-8"?>
<!-- Generator: Adobe Illustrator 28.3.0, SVG Export Plug-In . SVG Version: 6.00 Build 0)  -->
<svg version="1.1" id="Camada_1" xmlns="http://www.w3.org/2000/svg" xmlns:xlink="http://www.w3.org/1999/xlink" x="0px" y="0px"
	 viewBox="0 0 305.99 57.59" style="enable-background:new 0 0 305.99 57.59;" xml:space="preserve">
<style type="text/css">
	.st0{fill:#6C03FA;}
</style>
<path class="st0" d="M285.81,41.58c0,0.55-0.02,1.1-0.07,1.63c-2.53,1.52-5.49,2.4-8.66,2.4c-9.29,0-16.82-7.53-16.82-16.82
	c0-3.24,0.92-6.26,2.5-8.83c0.46-0.03,0.92-0.05,1.38-0.05C276.12,19.92,285.81,29.62,285.81,41.58z M305.99,28.8
	c0-8.13-2.8-14.96-8.41-20.5c-5.61-5.53-12.44-8.3-20.5-8.3c-8.06,0-14.89,2.77-20.5,8.3c-5.61,5.53-8.41,12.36-8.41,20.5
	s2.8,14.97,8.41,20.5c5.6,5.53,12.44,8.3,20.5,8.3c8.06,0,14.89-2.77,20.5-8.3C303.19,43.76,305.99,36.93,305.99,28.8z M255.43,28.8
	c0-6.08,2.09-11.23,6.27-15.44c4.18-4.21,9.3-6.32,15.39-6.32c6.08,0,11.21,2.11,15.39,6.32c4.18,4.21,6.27,9.36,6.27,15.44
	c0,6.08-2.09,11.23-6.27,15.44c-4.18,4.21-9.31,6.32-15.39,6.32c-6.08,0-11.21-2.11-15.39-6.32
	C257.52,40.03,255.43,34.88,255.43,28.8z M280.42,12.32c-0.31,0.99-0.48,2.04-0.48,3.12c0,5.72,4.64,10.36,10.36,10.36
	c1.13,0,2.21-0.18,3.23-0.51v-0.01C292.15,18.75,286.97,13.63,280.42,12.32z M50.56,1.32h7.25v54.96h-7.25V45.5
	c-5.06,8.06-12.46,12.09-22.2,12.09c-7.84,0-14.53-2.78-20.06-8.35C2.76,43.67,0,36.86,0,28.8c0-8.06,2.76-14.87,8.3-20.44
	C13.83,2.79,20.52,0,28.36,0c9.74,0,17.15,4.03,22.2,12.09V1.32z M13.52,44.24c4.18,4.21,9.3,6.32,15.39,6.32
	c6.08,0,11.21-2.11,15.39-6.32c4.18-4.21,6.27-9.36,6.27-15.44c0-6.08-2.09-11.23-6.27-15.44c-4.18-4.21-9.31-6.32-15.39-6.32
	c-6.08,0-11.21,2.11-15.39,6.32c-4.18,4.21-6.27,9.36-6.27,15.44C7.25,34.88,9.34,40.03,13.52,44.24z M98.81,57.59
	c-8.28,0-15.17-2.77-20.66-8.3c-5.5-5.53-8.24-12.37-8.24-20.5s2.75-14.96,8.24-20.5C83.64,2.77,90.53,0,98.81,0
	c5.42,0,10.29,1.3,14.62,3.9c4.32,2.6,7.47,6.1,9.45,10.5l-5.94,3.41c-1.47-3.3-3.83-5.92-7.09-7.86
	c-3.26-1.94-6.94-2.91-11.05-2.91c-6.08,0-11.21,2.11-15.39,6.32c-4.18,4.21-6.27,9.36-6.27,15.44c0,6.08,2.09,11.23,6.27,15.44
	c4.18,4.21,9.3,6.32,15.39,6.32c4.1,0,7.77-0.97,10.99-2.91c3.22-1.94,5.75-4.56,7.58-7.86l6.05,3.52c-2.27,4.4-5.61,7.88-10,10.44
	C109.03,56.31,104.16,57.59,98.81,57.59z M180.58,1.32h7.25v54.96h-7.25V45.5c-5.06,8.06-12.46,12.09-22.2,12.09
	c-7.84,0-14.53-2.78-20.06-8.35c-5.53-5.57-8.3-12.38-8.3-20.44c0-8.06,2.76-14.87,8.3-20.44C143.85,2.79,150.54,0,158.38,0
	c9.74,0,17.15,4.03,22.2,12.09V1.32z M143.54,44.24c4.18,4.21,9.3,6.32,15.39,6.32c6.08,0,11.21-2.11,15.39-6.32
	c4.18-4.21,6.27-9.36,6.27-15.44c0-6.08-2.09-11.23-6.27-15.44c-4.18-4.21-9.31-6.32-15.39-6.32c-6.08,0-11.21,2.11-15.39,6.32
	c-4.18,4.21-6.27,9.36-6.27,15.44C137.28,34.88,139.37,40.03,143.54,44.24z M208.94,15.57c0,2.45,1.11,4.4,3.34,5.84
	c2.23,1.44,4.92,2.61,8.07,3.51c3.15,0.9,6.3,1.8,9.45,2.7c3.15,0.9,5.81,2.53,7.98,4.89c2.17,2.36,3.25,5.44,3.25,9.26
	c0,4.69-1.85,8.5-5.55,11.43c-3.7,2.93-8.48,4.4-14.34,4.4c-5.28,0-9.77-1.17-13.46-3.52c-3.7-2.34-6.28-5.39-7.75-9.12l6.15-3.63
	c1.03,2.86,2.88,5.11,5.55,6.76c2.67,1.65,5.84,2.47,9.51,2.47c3.59,0,6.59-0.71,9.01-2.14c2.42-1.43,3.63-3.64,3.63-6.64
	c0-2.49-1.1-4.47-3.3-5.93c-2.2-1.46-4.88-2.65-8.03-3.55c-3.15-0.9-6.3-1.8-9.45-2.7c-3.15-0.9-5.82-2.5-8.02-4.81
	c-2.2-2.31-3.3-5.33-3.3-9.07c0-4.47,1.78-8.21,5.33-11.21c3.55-3,8.04-4.51,13.46-4.51c4.47,0,8.39,1.01,11.76,3.02
	c3.37,2.02,5.86,4.75,7.47,8.19l-6.05,3.52c-2.13-5.13-6.52-7.69-13.19-7.69c-3.15,0-5.86,0.74-8.13,2.22
	C210.08,10.73,208.94,12.84,208.94,15.57z"/>
</svg>
