<?xml version="1.0" encoding="UTF-8"?>
<svg xmlns="http://www.w3.org/2000/svg" version="1.1" viewBox="0 0 250 250">
  <defs>
    <style>
      .cls-1 {
        fill: #6c03fa;
      }
    </style>
  </defs>
  <!-- Generator: Adobe Illustrator 28.6.0, SVG Export Plug-In . SVG Version: 1.2.0 Build 709)  -->
  <g>
    <g id="Camada_1">
      <path class="cls-1" d="M150.9,162.6c0,1.6,0,3.3-.2,4.8-7.5,4.5-16.3,7.1-25.7,7.1-27.6,0-50-22.4-50-50s2.7-18.6,7.4-26.2c1.4,0,2.7-.1,4.1-.1,35.5,0,64.4,28.8,64.4,64.4ZM210.9,124.7c0-24.2-8.3-44.5-25-60.9-16.7-16.4-37-24.7-60.9-24.7s-44.3,8.2-60.9,24.7c-16.7,16.4-25,36.7-25,60.9s8.3,44.5,25,60.9c16.7,16.4,37,24.7,60.9,24.7s44.3-8.2,60.9-24.7c16.7-16.4,25-36.8,25-60.9ZM60.6,124.7c0-18.1,6.2-33.4,18.6-45.9,12.4-12.5,27.7-18.8,45.7-18.8s33.3,6.3,45.7,18.8c12.4,12.5,18.6,27.8,18.6,45.9s-6.2,33.4-18.6,45.9c-12.4,12.5-27.7,18.8-45.7,18.8s-33.3-6.3-45.7-18.8c-12.4-12.5-18.6-27.8-18.6-45.9ZM134.9,75.7c-.9,2.9-1.4,6.1-1.4,9.3,0,17,13.8,30.8,30.8,30.8s6.6-.5,9.6-1.5h0c-4.1-19.4-19.5-34.6-39-38.5Z"/>
    </g>
  </g>
</svg>