<svg xmlns="http://www.w3.org/2000/svg" width="30" height="16" viewBox="0 0 60 33" fill="none">
  <path d="M35.6368 11.3198H26.8408V31.2471H35.6368V11.3198Z" fill="white"></path>
  <path d="M0 11.3197H8.83822V31.2469H0V11.3197Z" fill="white"></path>
  <path d="M4.48441 2.54932H14.4639V3.1106L2.74751 10.085H2.11346L4.48441 2.54932Z" fill="#44C8F5"></path>
  <path d="M26.8418 11.3198H35.6377V31.2471H26.8418V11.3198Z" fill="white"></path>
  <path
    d="M31.2645 0C28.64 0 26.5265 1.99164 26.5265 4.42506C26.5265 6.89469 28.64 8.88633 31.2645 8.88995C33.8468 8.88995 35.9603 6.89469 35.9603 4.42506C35.9603 1.99164 33.843 0 31.2645 0Z"
    fill="white"></path>
  <path
    d="M59.9999 18.533V32.0436H58.9432L51.6267 27.2202C51.373 29.6101 48.8791 31.8444 44.9865 31.8444C41.2629 31.8444 38.5576 30.1316 38.5576 26.4634C38.5576 22.3171 42.4926 19.5288 51.204 19.4492V15.0277C51.204 13.3946 50.9503 11.2798 48.4142 11.2798C45.7934 11.2798 42.8307 13.391 40.9708 15.2269V12.196C43.7184 11.24 47.3151 10.7222 49.4286 10.7222C56.4915 10.7222 59.9999 12.3553 59.9999 18.533ZM51.204 26.6625V19.9272C47.9031 20.4848 46.635 22.7553 46.635 25.1489C46.635 27.2998 47.4381 28.7773 49.0444 28.7773C50.5699 28.7773 51.204 27.5823 51.204 26.6625Z"
    fill="white"></path>
  <path d="M13.4766 2.54932H22.2725V31.2868H13.4766V2.54932Z" fill="white"></path>
</svg>