<svg xmlns="http://www.w3.org/2000/svg" viewBox="0 0 1771.98 193.74"><defs><style>.cls-1{fill:#fff;}.cls-2{fill:#f1af02;}</style></defs><title>logos-dell-technologies-lead-iepro-idesco</title><g id="Camada_1" data-name="Camada 1"><path class="cls-1" d="M891.16,113.64V137.7h-78.1V16.64h27.5v97ZM530.07,137.7a60.55,60.55,0,0,0,58.6-45.3l68.49,53.51,68.45-53.47V137.7h78.1V113.64h-50.6v-97h-27.5V61.9L660,113.2l-14.68-11.47L676.7,77.17l34.23-26.74L691.39,35.17,625.73,86.46,611.05,75l65.65-51.3L657.16,8.43,588.67,61.94a60.55,60.55,0,0,0-58.6-45.3H481V137.7ZM508.5,113.64V40.7h21.57c18.25,0,33,16.33,33,36.47s-14.79,36.47-33,36.47Z"/><path class="cls-1" d="M981.79,26.64H944.36l-1.7,1.7v107.2l-1.7,1.7h-6.81l-1.7-1.7V28.34l-1.7-1.7H893.31l-1.7-1.7V19.83l1.7-1.7h88.48l1.71,1.7v5.11Z"/><path class="cls-1" d="M978.66,98.11l-1.7,1.7c0,10.21,6.81,30.63,28.93,30.63,13.61,0,20.42-6.81,23.82-17l1.71-1.7h6.8l1.7,1.7c-1.7,10.21-10.21,25.53-34,25.53-27.23,0-39.14-20.42-39.14-44.25V91.3c0-23.82,13.62-40.84,37.44-40.84s37.43,17,37.43,40.84v5.11l-1.7,1.7Zm52.76-10.21c0-11.91-6.81-28.93-27.23-28.93S977,76,977,87.9l1.7,1.7h51.05Z"/><path class="cls-1" d="M1089.53,130.44c17,0,23.82-10.21,25.52-20.42l1.7-1.7h6.81l1.7,1.7c-1.7,17-15.31,28.93-35.73,28.93-22.12,0-39.14-13.62-39.14-44.25s17-44.24,39.14-44.24c20.42,0,34,11.91,35.73,28.93l-1.7,1.7h-6.81l-1.7-1.7c-1.7-10.21-8.51-20.42-25.52-20.42S1060.6,70.88,1060.6,94.7,1072.51,130.44,1089.53,130.44Z"/><path class="cls-1" d="M1207.2,137.24h-6.81l-1.7-1.7v-51c0-17-8.51-25.52-22.12-25.52-18.72,0-27.23,11.91-27.23,30.63v45.94l-1.7,1.7h-6.81l-1.7-1.7V19.83l1.7-1.7h6.81l1.7,1.7V64.07h1.7c5.11-8.5,15.32-13.61,27.23-13.61,18.72,0,30.63,11.91,30.63,34v51.05Z"/><path class="cls-1" d="M1294.11,137.24h-6.81l-1.7-1.7v-51c0-17-8.51-25.52-22.12-25.52-18.72,0-27.23,11.91-27.23,30.63v45.94l-1.7,1.7h-6.8l-1.7-1.7V53.86l1.7-1.7h5.1l1.7,1.7,1.7,10.21H1238c5.1-8.5,15.31-13.61,27.22-13.61,18.72,0,30.63,11.91,30.63,34v51.05Z"/><path class="cls-1" d="M1309.81,94.7c0-28.92,17-44.24,39.14-44.24s39.14,15.32,39.14,44.24S1371.07,139,1349,139,1309.81,123.63,1309.81,94.7Zm10.21,0c0,22.12,11.91,35.74,28.93,35.74s28.93-13.62,28.93-35.74S1366,59,1349,59,1320,72.58,1320,94.7Z"/><path class="cls-1" d="M1406.8,137.24H1400l-1.7-1.7V19.83l1.7-1.7h6.81l1.7,1.7V135.54Z"/><path class="cls-1" d="M1422.37,94.7c0-28.92,17-44.24,39.14-44.24s39.14,15.32,39.14,44.24-17,44.25-39.14,44.25S1422.37,123.63,1422.37,94.7Zm10.21,0c0,22.12,11.91,35.74,28.93,35.74s28.93-13.62,28.93-35.74S1478.52,59,1461.51,59,1432.58,72.58,1432.58,94.7Z"/><path class="cls-1" d="M1572.37,125.33c-3.4,6.81-11.91,13.62-27.23,13.62-23.82,0-35.73-18.72-35.73-44.25s11.91-44.24,35.73-44.24c15.32,0,23.83,6.81,27.23,13.61h1.7l1.7-10.21,1.7-1.7h5.11l1.7,1.7v71.47c0,34-13.61,47.65-35.73,47.65-20.42,0-30.63-10.21-32.33-23.82l1.7-1.71h6.8l1.71,1.71c1.7,8.5,6.8,15.31,22.12,15.31,20.42,0,25.52-17,25.52-39.14Zm1.7-30.63c0-23.82-10.21-35.73-27.22-35.73s-27.23,11.91-27.23,35.73,10.21,35.74,27.23,35.74S1574.07,118.53,1574.07,94.7Z"/><path class="cls-1" d="M1609.94,38.55h-6.81l-1.7-1.7V26.64l1.7-1.7h6.81l1.7,1.7V36.85Zm0,98.69h-6.81l-1.7-1.7V53.86l1.7-1.7h6.81l1.7,1.7v81.68Z"/><path class="cls-1" d="M1637.42,98.11l-1.7,1.7c0,10.21,6.8,30.63,28.92,30.63,13.62,0,20.42-6.81,23.83-17l1.7-1.7H1697l1.7,1.7c-1.7,10.21-10.21,25.53-34,25.53-27.22,0-39.13-20.42-39.13-44.25V91.3c0-23.82,13.61-40.84,37.43-40.84s37.44,17,37.44,40.84v5.11l-1.7,1.7Zm52.75-10.21c0-11.91-6.81-28.93-27.23-28.93s-27.22,17-27.22,28.93l1.7,1.7h51Z"/><path class="cls-1" d="M1739.64,139c-20.42,0-32.33-11.91-32.33-27.23l1.7-1.7h6.81l1.7,1.7c0,10.21,6.81,18.72,22.12,18.72,17,0,22.13-6.81,22.13-15.32,0-13.61-8.51-15.31-25.53-18.71S1709,86.2,1709,72.58c0-11.91,10.21-22.12,28.93-22.12,17,0,30.63,6.81,30.63,23.82l-1.7,1.71h-6.81l-1.7-1.71c0-8.5-5.1-15.31-20.42-15.31-11.91,0-18.72,5.1-18.72,13.61,0,11.91,10.21,13.62,27.23,17S1772,99.81,1772,115.12C1772,128.74,1761.77,139,1739.64,139Z"/><path class="cls-1" d="M367.34,11.62v44a.05.05,0,0,1-.1,0c-6.16-7.91-17.1-12.5-30.3-12.5-25.15,0-39.7,17.38-41.2,47,0,0-.14,3.18-.15,3.58-.21,26.1-6.62,37.91-19.81,37.91-9.4,0-18.49-3-17.63-15.26.09-1.26,1.16-26.63-2.58-44.07s-17.85-29.5-38.71-29.5S172,58.12,174.74,100.9c0,3.4,1.21,10.71-3.87,20.21-3.56,6.65-10.59,11.06-26.44,10.53l-36.12.43c-24,0-30.39-20.58-30.76-29.69a.06.06,0,0,1,0,0l.48-.48h62.42c2.56,0,5.46-.35,7.4-2,3-2.58,2.93-5.2,2.91-8.08,0-25.18-13.24-43.45-34.55-47.67a45.71,45.71,0,0,0-8.79-.86h0c-12.18,0-23.66,3.22-32.45,12.11s-13.78,22.47-13.78,35V95.6c0,13.7,4.11,26.58,11,36.25,0,.05-23.47.16-23.47.16-17.85,0-32.37-12.8-32.38-30.64l0-90a8.11,8.11,0,0,0-8.11-8.1h0A8.22,8.22,0,0,0,0,11.53v92.28a44.3,44.3,0,0,0,44.3,44.3H148.78c19.82,0,29.8-7.94,34.83-16.19a.05.05,0,0,1,.09,0c8.48,11.34,21.05,16,33.16,16,16.8,0,24.33-7.43,28.94-14.14,0,0,.07,0,.09,0,5.5,10.24,16.12,14.3,28.28,14.3,14.24,0,23.91-3.93,29.81-16.12a.07.07,0,0,1,.11,0c7.42,10.35,18.68,16.18,32.85,16.18h1.89a45,45,0,0,0,44.83-44.88v-92a8,8,0,0,0-8-8h0A8.34,8.34,0,0,0,367.34,11.62ZM311.93,93.44c.41-16,5.6-33.95,26.94-33.95,22.31,0,27,19.64,27,36.11s-4.68,36.13-27,36.13c-21.77,0-26.74-18.7-27-34.92,0-.38,0-.73,0-1.12V93.44Zm-70.11,1.9c0,23.77-8.81,36.33-25.46,36.33-15.71,0-25.46-13.92-25.46-36.33S200.65,59,216.36,59C233,59,241.82,71.59,241.82,95.34ZM78.56,84.94a0,0,0,0,1,0,0c.32-9.56,6.45-25.28,27.52-25.28,8.51,0,15.17,2.1,19.82,6.24,7,6.26,7.8,15.69,7.8,19.51a.06.06,0,0,1-.06,0l-54.55,0h0Z"/><path class="cls-2" d="M272.84,158.71a8,8,0,0,0-7.12-1.69,8.44,8.44,0,0,0-3.85,2.18,65.55,65.55,0,0,1-37.07,17.68c-1.92.25-3.86.41-5.78.49q-1.38.06-2.76.06a65.82,65.82,0,0,1-44.17-17,8.49,8.49,0,0,0-5-2.27,8,8,0,0,0-7.23,3.4A8.2,8.2,0,0,0,161,172.33a82,82,0,0,0,55.27,21.41c1.14,0,2.29,0,3.44-.07,2.39-.1,4.8-.3,7.18-.61a81.69,81.69,0,0,0,46.46-22.27,8,8,0,0,0,2.46-6.09A8.22,8.22,0,0,0,272.84,158.71Z"/><path class="cls-2" d="M289.27,42A82.28,82.28,0,0,0,214,.07c-1.25,0-2.52.13-3.77.24A82.73,82.73,0,0,0,146.09,41a8,8,0,0,0,1.4,9.91l.18.18a7.93,7.93,0,0,0,5.82,2.2,8.11,8.11,0,0,0,6.66-4,66.38,66.38,0,0,1,51.51-32.72c1-.08,2-.15,3-.19a66,66,0,0,1,60.47,33.86,8,8,0,0,0,7,4.08h.34A7.87,7.87,0,0,0,289.7,49l.11-.33A8,8,0,0,0,289.27,42Z"/></g></svg>